<?xml version="1.0" encoding="UTF-8"?><svg id="Layer_2" xmlns="http://www.w3.org/2000/svg" viewBox="0 0 352.38 51.41"><defs><style>.cls-1{fill:#fff;}.cls-2{fill:#feb900;}</style></defs><g id="Layer_1-2"><g><g><path class="cls-2" d="M210.32,0h34.56c14.62,0,18.15,8.71,18.15,15.63,0,10.94-5.76,17.43-17.07,17.43h-21.67v18.36h-13.97V0Zm13.97,23.69h14.98c4.32,0,9.36-.14,9.36-7.06s-4.1-7.27-8.06-7.27h-16.27v14.33Z"/><path class="cls-2" d="M270.3,0h13.97V19.3h28.95V0h13.97V51.41h-13.97V29.09h-28.95v22.32h-13.97V0Z"/><path class="cls-2" d="M338.41,39.17h13.97v12.24h-13.97v-12.24Z"/></g><path class="cls-1" d="M84.41,4.74h1.87l10.48,12.81h.04V4.74h1.55v14.99h-1.81l-10.54-12.81h-.04v12.81h-1.55V4.74Z"/><path class="cls-1" d="M101.38,4.74h11.93v1.43h-10.37v5.08h9.99v1.43h-9.99v5.63h10.54v1.43h-12.09V4.74Z"/><path class="cls-1" d="M129.23,16.9h-.04c-1.53,2.2-3.3,3.21-6.24,3.21-5.08,0-7.85-3.19-7.85-7.87s3.04-7.87,8.02-7.87c4.18,0,6.84,2.35,7.24,5.12h-1.68c-.61-2.54-2.88-3.7-5.56-3.7-4.09,0-6.34,2.5-6.34,6.45s2.06,6.45,6.05,6.45c4.49,0,5.92-2.56,6.38-5.25h-5.5v-1.43h6.93v7.73h-1.2l-.21-2.83Z"/><path class="cls-1" d="M140.97,4.36c4.26,0,8.15,2.58,8.15,7.87s-3.88,7.87-8.15,7.87-8.15-2.58-8.15-7.87,3.88-7.87,8.15-7.87Zm0,14.32c3.3,0,6.47-1.93,6.47-6.45s-3.17-6.45-6.47-6.45-6.47,1.93-6.47,6.45,3.17,6.45,6.47,6.45Z"/><path class="cls-1" d="M166.16,14.02c-.34,3.36-3.11,6.09-7.41,6.09-4.87,0-7.98-3.07-7.98-7.87,0-3.42,2.12-7.87,7.98-7.87,3.28,0,6.82,1.49,7.29,5.44h-1.55c-.46-2.86-3.02-4.01-5.73-4.01-3.72,0-6.3,2.08-6.3,6.45,0,3.34,1.74,6.45,6.3,6.45,3.57,0,5.33-1.81,5.86-4.66h1.55Z"/><path class="cls-1" d="M168.58,4.74h1.55v14.99h-1.55V4.74Z"/><path class="cls-1" d="M180.63,4.36c4.26,0,8.15,2.58,8.15,7.87s-3.88,7.87-8.15,7.87-8.15-2.58-8.15-7.87,3.88-7.87,8.15-7.87Zm0,14.32c3.3,0,6.47-1.93,6.47-6.45s-3.17-6.45-6.47-6.45-6.47,1.93-6.47,6.45,3.17,6.45,6.47,6.45Z"/><path class="cls-1" d="M201.13,9.03c-.21-2.56-2.29-3.23-4.7-3.23s-4.24,.94-4.24,2.65c0,1.95,1.83,2.41,5.48,3.02,2.73,.46,5.46,1.09,5.46,3.97,0,3.67-3.34,4.68-6.26,4.68-3.8,0-6.57-1.3-6.8-5.33h1.55c.27,3.15,2.37,3.91,5.25,3.91,2.25,0,4.58-.61,4.58-2.98s-2.73-2.56-5.46-3c-3.57-.57-5.48-1.57-5.48-3.99,0-3.28,3.02-4.35,5.92-4.35,3.07,0,6.15,1.09,6.26,4.66h-1.55Z"/><g><path class="cls-1" d="M0,31.74H1.55v14.99H0v-14.99Z"/><path class="cls-1" d="M4.49,31.74h1.87l10.48,12.81h.04v-12.81h1.55v14.99h-1.81l-10.54-12.81h-.04v12.81h-1.55v-14.99Z"/><path class="cls-1" d="M25.66,33.17h-5.88v-1.43h13.31v1.43h-5.88v13.56h-1.55v-13.56Z"/><path class="cls-1" d="M34.69,31.74h11.93v1.43h-10.37v5.08h9.99v1.43h-9.99v5.63h10.54v1.43h-12.09v-14.99Z"/><path class="cls-1" d="M49.08,31.74h8.17c2.54,0,4.87,.9,4.87,4.05,0,1.6-.99,3.19-2.94,3.63v.04c2.12,.34,2.56,1.7,2.67,4.16,.04,.94,.17,2.77,.52,3.11h-1.68c-.27-.31-.38-1.43-.4-3.07-.04-2.65-1.05-3.53-3.63-3.53h-6.03v6.59h-1.55v-14.99Zm1.55,6.97h6.57c1.7,0,3.23-.63,3.23-2.92s-1.66-2.62-3.09-2.62h-6.72v5.54Z"/><path class="cls-1" d="M64.39,31.74h1.87l10.48,12.81h.04v-12.81h1.55v14.99h-1.81l-10.54-12.81h-.04v12.81h-1.55v-14.99Z"/><path class="cls-1" d="M91.2,42.18h-7.89l-2.04,4.56h-1.68l6.8-14.99h1.81l6.8,14.99h-1.81l-1.99-4.56Zm-3.93-8.88l-3.34,7.45h6.63l-3.3-7.45Z"/><path class="cls-1" d="M111.13,41.02c-.34,3.36-3.11,6.09-7.41,6.09-4.87,0-7.98-3.07-7.98-7.87,0-3.42,2.12-7.87,7.98-7.87,3.28,0,6.82,1.49,7.29,5.44h-1.55c-.46-2.86-3.02-4.01-5.73-4.01-3.72,0-6.3,2.08-6.3,6.45,0,3.34,1.74,6.45,6.3,6.45,3.57,0,5.33-1.81,5.86-4.66h1.55Z"/><path class="cls-1" d="M113.55,31.74h1.55v14.99h-1.55v-14.99Z"/><path class="cls-1" d="M125.6,31.36c4.26,0,8.15,2.58,8.15,7.87s-3.88,7.87-8.15,7.87-8.15-2.58-8.15-7.87,3.88-7.87,8.15-7.87Zm0,14.32c3.3,0,6.47-1.93,6.47-6.45s-3.17-6.45-6.47-6.45-6.47,1.93-6.47,6.45,3.17,6.45,6.47,6.45Z"/><path class="cls-1" d="M135.93,31.74h1.87l10.48,12.81h.04v-12.81h1.55v14.99h-1.81l-10.54-12.81h-.04v12.81h-1.55v-14.99Z"/><path class="cls-1" d="M162.75,42.18h-7.89l-2.04,4.56h-1.68l6.8-14.99h1.81l6.8,14.99h-1.81l-1.99-4.56Zm-3.93-8.88l-3.34,7.45h6.63l-3.3-7.45Z"/><path class="cls-1" d="M167.81,31.74h1.55v13.56h9.51v1.43h-11.06v-14.99Z"/><path class="cls-1" d="M180.51,31.74h11.93v1.43h-10.37v5.08h9.99v1.43h-9.99v5.63h10.54v1.43h-12.09v-14.99Z"/><path class="cls-1" d="M204.81,36.03c-.21-2.56-2.29-3.23-4.7-3.23s-4.24,.94-4.24,2.65c0,1.95,1.83,2.41,5.48,3.02,2.73,.46,5.46,1.09,5.46,3.97,0,3.67-3.34,4.68-6.26,4.68-3.8,0-6.57-1.3-6.8-5.33h1.55c.27,3.15,2.37,3.91,5.25,3.91,2.25,0,4.58-.61,4.58-2.98s-2.73-2.56-5.46-3c-3.57-.57-5.48-1.57-5.48-3.99,0-3.28,3.02-4.35,5.92-4.35,3.07,0,6.15,1.09,6.26,4.66h-1.55Z"/></g></g></g></svg>